<?xml version="1.0" encoding="utf-8"?>
<!-- Generator: Adobe Illustrator 18.1.1, SVG Export Plug-In . SVG Version: 6.00 Build 0)  -->
<svg version="1.1" id="Layer_1" xmlns="http://www.w3.org/2000/svg" xmlns:xlink="http://www.w3.org/1999/xlink" x="0px" y="0px"
	 viewBox="0 0 170 50" enable-background="new 0 0 170 50" xml:space="preserve">
<path fill="#00A591" d="M48,50H25C11.3,50,0,38.8,0,25v0C0,11.2,11.2,0,25,0l23,0c1.1,0,2,0.9,2,2v46C50,49.1,49.1,50,48,50z"/>
<g>
	<path fill="#FFFFFF" d="M39,23.3c0,1.1-0.9,2-2,2v6c0,1.1-0.9,2-2,2c-2.8-2.3-7.3-5.5-12.7-5.9c-1.9,0.6-2.5,2.8-1.3,4
		c-1.1,1.8,0.3,3.1,2,4.4c-1,1.9-5,1.9-6.4,0.6c-0.9-2.8-2.3-5.6-1.2-9.1h-1.9c-1.4,0-2.5-1.1-2.5-2.5v-3c0-1.4,1.1-2.5,2.5-2.5H21
		c6,0,11-3.5,14-6c1.1,0,2,0.9,2,2v6C38.1,21.3,39,22.2,39,23.3z M35,15.8c-4.1,3.1-8,4.9-12,5.4v4.2c4,0.4,7.9,2.2,12,5.3V15.8z"/>
</g>
<g>
	<path fill="#202020" d="M77.3,34.9c0,0.6-0.2,1-0.6,1.4c-0.4,0.4-0.8,0.5-1.3,0.5c-0.4,0-0.8-0.1-1.1-0.4c-0.3-0.2-0.6-0.6-0.7-1
		l-1.7-4h-9.8l-1.7,4c-0.2,0.4-0.4,0.7-0.7,1c-0.3,0.2-0.7,0.3-1,0.3c-0.6,0-1-0.2-1.3-0.5s-0.4-0.7-0.4-1.3c0-0.2,0-0.4,0.1-0.6
		l8.2-19.7c0.2-0.4,0.4-0.8,0.8-1c0.4-0.2,0.7-0.3,1.2-0.3c0.4,0,0.8,0.1,1.1,0.3c0.3,0.2,0.6,0.6,0.7,1l8.1,19.3
		C77.2,34.4,77.3,34.7,77.3,34.9z M63.7,27.7h6.6L66.9,20L63.7,27.7z"/>
	<path fill="#202020" d="M95.4,12.8c0.4,0.4,0.6,0.9,0.6,1.5v20.4c0,0.6-0.2,1.1-0.6,1.4s-0.8,0.6-1.4,0.6s-1-0.2-1.4-0.6
		c-0.4-0.4-0.6-0.8-0.6-1.4c-0.5,0.6-1.3,1.2-2.2,1.6c-0.9,0.5-1.9,0.7-3,0.7c-1.5,0-2.9-0.4-4.1-1.2c-1.2-0.8-2.2-1.9-2.9-3.3
		s-1.1-3-1.1-4.7s0.4-3.3,1.1-4.7c0.7-1.4,1.7-2.5,2.9-3.3c1.2-0.8,2.6-1.2,4-1.2c1.1,0,2,0.2,3,0.6c0.9,0.4,1.7,0.9,2.3,1.5v-6.5
		c0-0.6,0.2-1.1,0.6-1.4s0.8-0.6,1.4-0.6S95.1,12.5,95.4,12.8z M90.9,31.8c0.9-1,1.4-2.4,1.4-3.9s-0.5-2.9-1.4-4s-2.1-1.6-3.5-1.6
		c-1.4,0-2.6,0.5-3.5,1.6s-1.4,2.4-1.4,4s0.4,2.9,1.3,3.9c0.9,1,2.1,1.6,3.5,1.6C88.8,33.4,90,32.9,90.9,31.8z"/>
	<path fill="#202020" d="M100.4,16.5c-0.3-0.2-0.5-0.7-0.5-1.3v-0.6c0-0.6,0.2-1,0.5-1.3c0.3-0.2,0.9-0.4,1.6-0.4
		c0.8,0,1.3,0.1,1.6,0.4s0.5,0.7,0.5,1.3v0.6c0,0.6-0.2,1.1-0.5,1.3c-0.3,0.2-0.9,0.3-1.6,0.3C101.3,16.9,100.7,16.8,100.4,16.5z
		 M103.5,36.1c-0.4,0.4-0.8,0.6-1.4,0.6s-1-0.2-1.4-0.6s-0.6-0.9-0.6-1.4V21.1c0-0.6,0.2-1.1,0.6-1.4c0.4-0.4,0.8-0.6,1.4-0.6
		s1,0.2,1.4,0.6c0.4,0.4,0.6,0.9,0.6,1.4v13.6C104,35.3,103.8,35.7,103.5,36.1z"/>
	<path fill="#202020" d="M115,16.4c-0.3,0.4-0.5,0.9-0.5,1.4v1.6h3c0.5,0,1,0.2,1.3,0.5c0.4,0.3,0.5,0.8,0.5,1.3
		c0,0.5-0.2,1-0.5,1.3c-0.4,0.3-0.8,0.5-1.3,0.5h-3v11.7c0,0.6-0.2,1.1-0.6,1.4s-0.8,0.6-1.4,0.6s-1-0.2-1.4-0.6s-0.6-0.9-0.6-1.4
		V23h-1.8c-0.5,0-1-0.2-1.3-0.5c-0.4-0.3-0.5-0.8-0.5-1.3c0-0.5,0.2-1,0.5-1.3c0.4-0.3,0.8-0.5,1.3-0.5h1.8v-1.5c0-1.7,0.6-3,1.7-4
		c1.1-1,2.8-1.6,4.9-1.6c0.8,0,1.5,0.2,2.1,0.5c0.6,0.3,0.9,0.8,0.9,1.5c0,0.5-0.2,1-0.5,1.3c-0.3,0.3-0.7,0.5-1.1,0.5
		c-0.1,0-0.2,0-0.3,0c-0.1,0-0.2,0-0.4-0.1c-0.5-0.1-1-0.2-1.3-0.2C115.8,15.8,115.3,16,115,16.4z M122,16.5
		c-0.3-0.2-0.5-0.7-0.5-1.3v-0.6c0-0.6,0.2-1,0.5-1.3s0.9-0.4,1.6-0.4c0.8,0,1.3,0.1,1.6,0.4c0.3,0.2,0.5,0.7,0.5,1.3v0.6
		c0,0.6-0.2,1.1-0.5,1.3c-0.3,0.2-0.9,0.3-1.6,0.3C122.8,16.9,122.3,16.8,122,16.5z M125,36.1c-0.4,0.4-0.8,0.6-1.4,0.6
		c-0.6,0-1-0.2-1.4-0.6c-0.4-0.4-0.6-0.9-0.6-1.4V21.1c0-0.6,0.2-1.1,0.6-1.4c0.4-0.4,0.8-0.6,1.4-0.6c0.6,0,1,0.2,1.4,0.6
		c0.4,0.4,0.6,0.9,0.6,1.4v13.6C125.6,35.3,125.4,35.7,125,36.1z"/>
	<path fill="#202020" d="M144.8,28.7c-0.4,0.3-0.9,0.5-1.4,0.5h-10.9c0.3,1.3,0.9,2.3,1.8,3.1c0.9,0.7,2,1.1,3.2,1.1
		c0.9,0,1.6-0.1,2.1-0.2s0.9-0.3,1.2-0.5c0.3-0.2,0.5-0.3,0.6-0.4c0.4-0.2,0.8-0.3,1.1-0.3c0.5,0,0.9,0.2,1.2,0.5s0.5,0.7,0.5,1.2
		c0,0.6-0.3,1.1-0.9,1.6c-0.6,0.5-1.4,0.9-2.5,1.3c-1,0.4-2.1,0.5-3.1,0.5c-1.8,0-3.5-0.4-4.8-1.2c-1.4-0.8-2.4-1.8-3.2-3.2
		c-0.7-1.4-1.1-2.9-1.1-4.6c0-1.9,0.4-3.6,1.2-5c0.8-1.4,1.8-2.5,3.1-3.3c1.3-0.8,2.7-1.1,4.2-1.1c1.5,0,2.8,0.4,4.1,1.2
		s2.3,1.9,3.1,3.2c0.8,1.3,1.2,2.8,1.2,4.4C145.5,28,145.2,28.4,144.8,28.7z M132.6,25.9h8.6v-0.2c-0.1-0.9-0.5-1.7-1.4-2.4
		c-0.8-0.7-1.7-1-2.8-1C134.6,22.3,133.1,23.5,132.6,25.9z"/>
	<path fill="#202020" d="M159.6,19.3c0.5,0.4,0.7,0.8,0.7,1.3c0,0.7-0.2,1.2-0.5,1.5c-0.4,0.3-0.8,0.5-1.3,0.5
		c-0.3,0-0.7-0.1-1.1-0.2c-0.1,0-0.2-0.1-0.4-0.1s-0.5-0.1-0.7-0.1c-0.6,0-1.1,0.2-1.7,0.5c-0.5,0.4-1,0.9-1.3,1.6
		c-0.3,0.7-0.5,1.6-0.5,2.6v7.8c0,0.6-0.2,1.1-0.6,1.4s-0.8,0.6-1.4,0.6s-1-0.2-1.4-0.6s-0.6-0.9-0.6-1.4V21.1
		c0-0.6,0.2-1.1,0.6-1.4c0.4-0.4,0.8-0.6,1.4-0.6s1,0.2,1.4,0.6c0.4,0.4,0.6,0.9,0.6,1.4v0.4c0.5-0.9,1.2-1.6,2.2-2.1
		c0.9-0.5,2-0.7,3-0.7C158.6,18.7,159.2,18.9,159.6,19.3z"/>
</g>
<g>
</g>
<g>
</g>
<g>
</g>
<g>
</g>
<g>
</g>
</svg>
